<?xml version="1.0" encoding="utf-8"?>
<!-- Generator: Adobe Illustrator 22.1.0, SVG Export Plug-In . SVG Version: 6.00 Build 0)  -->
<svg version="1.1" id="Layer_2" xmlns="http://www.w3.org/2000/svg" xmlns:xlink="http://www.w3.org/1999/xlink" x="0px" y="0px"
	 viewBox="0 0 500 500" style="enable-background:new 0 0 500 500;" xml:space="preserve">
<g>
	<ellipse transform="matrix(0.1884 -0.9821 0.9821 0.1884 65.7999 427.5175)" cx="291.6" cy="173.9" rx="45.8" ry="29.8"/>
	<ellipse transform="matrix(0.999 -4.564280e-02 4.564280e-02 0.999 -7.5853 10.1431)" cx="218.3" cy="171.2" rx="29.8" ry="45.8"/>
	<path d="M316.1,312.4c2.3,17.8-1.4,36.6-15.1,36.1s-23.9-28.4-31-28.7c0,0-14.4,17.8-28.2,17.3c-9.2-0.3-15.7-19.3-22.2-19.2
		c-8.6,0.2-10.4,31.7-33.1,26.2c-9.7-2.3-11.8-8.3-12.7-28c-1.4-29.9,16.1-51.8,39.2-67.3c12-8,21.8-16.2,37.3-16.9
		c16.3-0.7,28.4,11,35.7,24.3C299,279.7,312.6,284.8,316.1,312.4z"/>
	<ellipse transform="matrix(0.3889 -0.9213 0.9213 0.3889 -12.119 458.8041)" cx="339.8" cy="238.5" rx="41.3" ry="26.9"/>
	<ellipse transform="matrix(0.9787 -0.2053 0.2053 0.9787 -43.1217 37.5653)" cx="159.5" cy="226.6" rx="27.7" ry="42.6"/>
</g>
</svg>
