<?xml version="1.0" encoding="utf-8"?>
<!-- Generator: Adobe Illustrator 22.1.0, SVG Export Plug-In . SVG Version: 6.00 Build 0)  -->
<svg version="1.1" id="Layer_2_1_" xmlns="http://www.w3.org/2000/svg" xmlns:xlink="http://www.w3.org/1999/xlink" x="0px" y="0px"
	 viewBox="0 0 255 228" style="enable-background:new 0 0 255 228;" xml:space="preserve">
<style type="text/css">
	.st0{fill:#FFFFFF;}
</style>
<g>
	<g>
		<path class="st0" d="M164.7,98.8c-1.4,0-2.8-0.1-4.2-0.4C143,95,132.9,71,137.9,44.9c5-26.2,23.3-44.7,40.8-41.4
			c8.7,1.7,15.8,8.3,20,18.7c4.1,10,5,22.4,2.6,34.9s-7.8,23.6-15.3,31.4C179.4,95.2,172,98.8,164.7,98.8z M174.4,8.1
			c-13.7,0-27.5,16-31.7,37.7c-4.5,23.4,3.9,44.8,18.6,47.7c7,1.3,14.4-1.7,20.9-8.5c6.8-7.1,11.8-17.4,14-28.9l0,0
			c2.2-11.5,1.4-22.9-2.3-32c-3.6-8.7-9.4-14.3-16.3-15.6C176.6,8.2,175.5,8.1,174.4,8.1z"/>
	</g>
	<g>
		<path class="st0" d="M97.5,96.5c-8.4,0-16.5-4.8-22.8-13.5C68.4,74.2,64.6,62.4,64,49.7c-0.6-12.7,2.1-24.8,7.6-34.1
			C77.3,5.9,85.2,0.4,94.1,0c17.8-0.8,33.2,20.2,34.4,46.8l0,0c1.2,26.6-12.3,48.9-30,49.7C98.2,96.4,97.8,96.5,97.5,96.5z
			 M95.1,4.9c-0.3,0-0.5,0-0.8,0c-7.1,0.3-13.6,5-18.4,13.1c-5,8.5-7.4,19.6-6.9,31.4C69.5,61.1,73,72,78.7,80
			c5.5,7.7,12.4,11.7,19.5,11.4c15-0.7,26.4-20.6,25.3-44.5l0,0C122.5,23.5,109.8,4.9,95.1,4.9z"/>
	</g>
	<g>
		<path class="st0" d="M179.5,228c-0.2,0-0.4,0-0.6,0c-9.2-0.3-16.5-10.7-22.4-18.9c-2.3-3.3-5.7-8-7.7-9.3
			c-3.8,4.3-16.4,17.4-29.1,16.9c-6.1-0.2-10.7-6.4-14.8-11.8c-2.3-3.1-5.5-7.4-7.3-7.4c-1.7,0-3.9,4.3-5.9,8.1
			c-4.6,8.8-11.5,22-27.8,18.1c-12-2.9-13.8-11.9-14.6-30.3c-1.2-27.3,12.3-50.7,40.3-69.5c1.5-1,3-2,4.5-3
			c10.2-7,19.9-13.7,34.1-14.3c14.9-0.7,28.8,8.6,38.1,25.6c4.4,8,8.8,13.8,13.1,19.3c7.9,10.2,14.7,19.1,17.1,37.7l0,0
			c1.9,15-0.4,27.8-6.2,34.2C187.5,226.4,183.8,228,179.5,228z M146.8,194.3h1.2c4.2,0.2,7.7,5.1,12.5,11.8
			c5.2,7.4,11.8,16.6,18.5,16.8c3.1,0.1,5.5-0.9,7.6-3.1c4.8-5.2,6.7-16.8,5-30.1l0,0c-2.2-17.3-8.3-25.2-16.1-35.3
			c-4.2-5.4-8.9-11.6-13.5-20c-4.9-8.9-15.8-23.8-33.4-23c-12.8,0.6-21.5,6.5-31.5,13.4c-1.5,1-3,2-4.5,3.1
			c-26.5,17.7-39.3,39.6-38.1,65.1c0.9,20.3,3.3,23.9,10.8,25.7c12.5,3,17.7-6.9,22.2-15.5c3-5.7,5.6-10.7,10.2-10.8
			c0.1,0,0.1,0,0.2,0c4.2,0,7.5,4.3,11.2,9.4c3.4,4.5,7.2,9.7,11,9.8c12.3,0.4,26-16.2,26.1-16.3L146.8,194.3z"/>
	</g>
	<g>
		<path class="st0" d="M208.7,157.5c-2.8,0-5.4-0.5-8-1.6c-14.9-6.3-19.4-29.5-10-51.8c4.5-10.6,11.4-19.5,19.5-24.9
			c8.4-5.7,17.2-7.1,24.6-4c14.9,6.3,19.4,29.5,10,51.8l0,0C237,145.4,222.1,157.5,208.7,157.5z M226.7,78.6c-4.3,0-9,1.6-13.6,4.8
			c-7.3,4.9-13.6,13-17.7,22.8c-8.3,19.7-5,40,7.3,45.2c12.4,5.2,29.2-6.6,37.5-26.3l0,0c8.3-19.7,5-40-7.3-45.2
			C230.9,79,228.9,78.6,226.7,78.6z"/>
	</g>
	<g>
		<path class="st0" d="M42.5,148.1c-15,0-29.9-16.1-34.6-38.3l0,0c-5.1-24.3,4-46.9,20.3-50.3c8.1-1.7,16.6,1.5,24,8.9
			c7.1,7.1,12.4,17.4,14.8,29c5.1,24.3-4,46.9-20.3,50.3C45.3,148,43.9,148.1,42.5,148.1z M12.8,108.7c4.5,21.6,19.3,36.9,32.9,34
			c13.6-2.8,20.9-22.8,16.4-44.4c-2.2-10.7-7-20.1-13.4-26.5c-6.1-6.2-13-8.8-19.4-7.5C15.7,67.2,8.3,87.1,12.8,108.7L12.8,108.7z"
			/>
	</g>
</g>
</svg>
