<?xml version="1.0" encoding="utf-8"?>
<!-- Generator: Adobe Illustrator 22.1.0, SVG Export Plug-In . SVG Version: 6.00 Build 0)  -->
<!DOCTYPE svg PUBLIC "-//W3C//DTD SVG 1.0//EN" "http://www.w3.org/TR/2001/REC-SVG-20010904/DTD/svg10.dtd" [
	<!ENTITY ns_extend "http://ns.adobe.com/Extensibility/1.0/">
	<!ENTITY ns_ai "http://ns.adobe.com/AdobeIllustrator/10.0/">
	<!ENTITY ns_graphs "http://ns.adobe.com/Graphs/1.0/">
	<!ENTITY ns_vars "http://ns.adobe.com/Variables/1.0/">
	<!ENTITY ns_imrep "http://ns.adobe.com/ImageReplacement/1.0/">
	<!ENTITY ns_sfw "http://ns.adobe.com/SaveForWeb/1.0/">
	<!ENTITY ns_custom "http://ns.adobe.com/GenericCustomNamespace/1.0/">
	<!ENTITY ns_adobe_xpath "http://ns.adobe.com/XPath/1.0/">
]>
<svg version="1.0" id="Layer_1" xmlns:x="&ns_extend;" xmlns:i="&ns_ai;" xmlns:graph="&ns_graphs;"
	 xmlns="http://www.w3.org/2000/svg" xmlns:xlink="http://www.w3.org/1999/xlink" x="0px" y="0px" viewBox="0 0 500 500"
	 style="enable-background:new 0 0 500 500;" xml:space="preserve">
    <linearGradient id="linear-gradient" x2="0" y2="100%">
       <stop offset="0%" stop-color="#30292f"/>
       <stop offset="100%" stop-color="#181417"/>
   </linearGradient>

	<path fill="url(#linear-gradient)" d="M478,180.9L464.6,24.7c-0.7-7.8-7.6-13.5-15.3-12.9L329.3,61.5c-24.9-7.3-51.5-11.3-79.2-11.3c-27.7,0-54.3,4-79.2,11.3
			L50.9,11.8c-7.8-0.7-14.6,5.1-15.3,12.9L22.2,180.9C9.5,206.8,2.5,235.2,2.5,265.1C2.5,383.8,162.7,480,250.1,480
			c88.9,0,247.6-96.2,247.6-214.9C497.7,235.2,490.6,206.8,478,180.9z M203.7,294.5c-6.1,13.8-37.1,13.6-69.4-0.6
			c-32.3-14.1-53.5-36.8-47.4-50.6s37.1-13.6,69.4,0.6C188.5,258,209.8,280.7,203.7,294.5z M365.8,293.9
			c-32.3,14.1-63.3,14.4-69.4,0.6s15.2-36.5,47.4-50.6c32.3-14.1,63.3-14.4,69.4-0.6C419.3,257.1,398.1,279.8,365.8,293.9z"/>
</svg>
